<?xml version="1.0" standalone="no"?>
<!DOCTYPE svg PUBLIC "-//W3C//DTD SVG 20010904//EN"
 "http://www.w3.org/TR/2001/REC-SVG-20010904/DTD/svg10.dtd">
<svg version="1.0" xmlns="http://www.w3.org/2000/svg"
 width="512.000000pt" height="512.000000pt" viewBox="0 0 512.000000 512.000000"
 preserveAspectRatio="xMidYMid meet">
<metadata>
Created by potrace 1.14, written by Peter Selinger 2001-2017
</metadata>
<g transform="translate(0.000000,512.000000) scale(0.100000,-0.100000)"
fill="#000000" stroke="none">
<path d="M2369 5116 c-2 -2 -36 -6 -74 -10 -72 -7 -80 -8 -180 -26 -33 -5 -73
-13 -90 -15 -16 -3 -38 -8 -47 -11 -9 -3 -26 -7 -37 -9 -12 -2 -61 -16 -109
-30 -574 -173 -1067 -537 -1403 -1036 -211 -314 -354 -690 -404 -1059 -16
-117 -20 -186 -19 -370 0 -249 10 -344 58 -565 42 -197 141 -455 246 -647 280
-509 718 -908 1243 -1132 174 -74 436 -151 582 -171 28 -4 61 -9 75 -11 169
-29 573 -26 738 5 26 5 67 12 92 16 24 4 47 8 51 10 3 2 21 7 40 10 124 21
390 115 549 194 492 245 882 621 1138 1098 154 289 245 580 288 923 2 19 6
125 8 235 5 236 -5 363 -44 551 -35 169 -104 388 -160 507 -65 139 -237 172
-357 69 -67 -58 -86 -179 -43 -277 64 -148 122 -368 145 -560 13 -102 14 -429
2 -480 -3 -11 -8 -45 -12 -75 -9 -70 -40 -210 -60 -275 -9 -27 -18 -59 -20
-71 -23 -107 -176 -410 -283 -559 -337 -469 -828 -775 -1396 -869 -178 -30
-529 -28 -685 4 -25 5 -59 12 -76 15 -87 17 -84 16 -255 72 -127 42 -324 135
-442 211 -239 152 -438 345 -612 596 -66 93 -69 96 -106 96 -48 0 -85 -39 -75
-80 22 -93 275 -394 466 -555 96 -80 271 -205 288 -205 6 0 11 -4 11 -10 0 -5
4 -10 9 -10 5 0 35 -15 68 -33 194 -109 519 -222 696 -243 29 -4 55 -8 58 -10
16 -9 174 -19 319 -19 170 0 274 7 370 24 30 6 69 13 86 16 145 24 371 102
549 189 118 58 339 196 390 242 11 11 43 37 70 59 28 22 89 78 136 125 271
269 472 607 578 971 16 57 32 115 35 129 2 14 11 60 20 102 22 114 31 226 31
398 0 142 -10 314 -19 329 -2 3 -7 28 -10 55 -16 113 -65 294 -119 433 -37 96
-39 123 -11 154 39 43 102 22 129 -43 89 -219 146 -442 172 -673 10 -91 10
-398 0 -499 -10 -107 -15 -133 -42 -261 -99 -460 -320 -864 -654 -1195 -53
-53 -112 -109 -131 -125 -327 -278 -693 -456 -1105 -540 -35 -7 -152 -25 -212
-32 -121 -15 -496 -8 -603 12 -8 1 -35 6 -60 10 -209 32 -530 143 -720 247
-97 54 -145 82 -150 88 -3 4 -12 9 -21 12 -43 16 -278 206 -385 313 -266 263
-458 558 -573 880 -18 50 -36 101 -41 115 -33 89 -78 310 -99 480 -11 96 -7
441 8 545 36 257 106 496 211 720 248 527 697 961 1232 1188 221 95 444 155
678 183 79 10 430 11 520 2 75 -8 220 -32 301 -51 60 -15 93 -9 115 21 29 38
5 101 -43 116 -32 9 -217 45 -268 51 -27 4 -61 9 -75 12 -29 5 -465 14 -471 9z"/>
<path d="M3475 4930 c-32 -12 -48 -38 -47 -71 1 -30 26 -69 44 -69 35 0 338
-164 451 -244 128 -90 141 -97 167 -91 14 3 52 34 85 69 75 79 104 88 123 39
9 -25 37 -157 49 -237 3 -17 13 -69 22 -116 20 -97 14 -141 -23 -165 -29 -19
-64 -21 -171 -11 -99 9 -147 13 -250 20 -64 5 -83 11 -97 27 -23 27 -14 43 63
127 92 98 84 124 -69 226 -287 190 -631 323 -932 361 -30 4 -64 9 -75 12 -11
2 -105 6 -210 8 -241 4 -380 -12 -596 -66 -310 -77 -601 -221 -859 -425 -178
-141 -391 -382 -518 -586 -166 -268 -282 -606 -320 -938 -9 -83 -9 -394 0
-485 20 -191 102 -508 163 -625 30 -58 98 -65 132 -14 19 30 19 27 -46 216
-22 64 -42 127 -45 140 -2 12 -13 66 -24 118 -11 52 -24 129 -28 170 -16 143
-9 464 11 570 41 216 83 357 155 521 163 369 445 698 790 921 364 236 775 349
1210 334 91 -3 174 -8 185 -10 11 -3 38 -8 60 -11 86 -12 108 -16 217 -44 205
-53 429 -150 601 -261 37 -24 67 -46 67 -50 0 -4 -9 -15 -21 -26 -90 -81 -95
-216 -11 -300 38 -37 81 -51 192 -59 47 -3 101 -8 120 -10 75 -9 217 -19 260
-17 126 3 233 112 232 237 0 28 -11 109 -25 180 -28 143 -32 162 -48 252 -21
121 -96 194 -198 195 -57 0 -102 -21 -156 -72 l-40 -39 -45 31 c-95 66 -207
132 -321 189 -95 48 -196 92 -203 88 0 0 -10 -4 -21 -9z"/>
<path d="M1480 3183 c-21 -8 -70 -55 -70 -68 0 -6 -24 -74 -54 -150 -29 -77
-85 -223 -124 -325 -39 -102 -98 -257 -132 -345 -34 -88 -62 -173 -62 -189 -1
-40 43 -79 80 -70 44 11 58 30 98 139 l38 105 252 0 251 0 38 -102 c43 -115
49 -126 82 -139 51 -19 105 26 96 81 -3 20 -122 346 -168 460 -8 19 -58 149
-110 289 -53 140 -100 263 -106 272 -16 32 -75 54 -109 42z m64 -340 c15 -43
31 -87 36 -98 6 -11 34 -85 64 -165 l54 -145 -93 -3 c-52 -1 -138 -1 -192 0
l-99 3 94 247 c52 136 98 245 102 243 4 -2 19 -39 34 -82z"/>
<path d="M2585 3183 c-400 -65 -616 -488 -430 -842 40 -75 117 -162 186 -209
42 -28 131 -69 169 -77 8 -2 33 -7 55 -13 60 -13 182 -6 250 16 196 61 332
249 352 484 7 83 0 114 -30 130 -31 17 -331 19 -374 2 -55 -22 -54 -112 1
-131 12 -4 68 -8 126 -9 58 -1 110 -2 116 -3 14 -1 4 -56 -23 -125 -68 -171
-229 -252 -417 -209 -294 67 -426 422 -247 662 66 88 145 141 248 164 104 24
195 12 296 -39 76 -38 93 -41 123 -16 26 21 36 56 24 88 -12 30 -96 78 -182
105 -61 19 -190 30 -243 22z"/>
<path d="M3447 3172 c-14 -9 -28 -25 -31 -36 -3 -12 -5 -252 -5 -535 l0 -514
28 -27 27 -28 236 2 c249 1 260 3 278 51 10 27 -7 73 -33 87 -14 7 -87 12
-202 12 l-180 1 -1 170 c-1 94 2 172 7 175 4 3 77 5 161 4 170 -1 199 6 216
55 8 23 6 35 -9 60 -10 17 -24 32 -31 32 -7 1 -87 2 -178 3 l-165 1 0 175 0
175 170 2 c215 1 199 0 224 21 31 26 34 67 6 100 l-23 27 -235 1 c-196 1 -239
-1 -260 -14z"/>
</g>
</svg>
